<?xml version="1.0" encoding="utf-8"?>
<!-- Generator: Adobe Illustrator 19.2.1, SVG Export Plug-In . SVG Version: 6.00 Build 0)  -->
<svg version="1.1" id="layer" xmlns="http://www.w3.org/2000/svg" xmlns:xlink="http://www.w3.org/1999/xlink" x="0px" y="0px"
	 viewBox="0 0 652 652" style="enable-background:new 0 0 652 652;" xml:space="preserve">
<style type="text/css">
	.st0{fill:#959696;}
</style>
<g>
	<path d="M39.1,319.7c0-7.2-0.1-9.6-0.2-14.2c-0.1-6-1.8-6.8-9.1-6.8c-1.1,0-1.1-0.8-1.1-1.7c0-0.6,0.2-1.3,0.9-1.3
		c0.8,0,8.1,0.4,14.4,0.4c0.9,0,9.1-0.4,14.3-0.4c24.1,0,26.7,15.8,26.7,20c0,14.4-10,21.8-23.7,21.8c-4,0-8.1-0.2-12.2-1
		c0,16.1,0.1,18.9,0.2,21.9c0.2,4,0.8,6.5,11.2,6.5c2.8,0,2.8,0.6,2.8,1.7c0,0.9,0,1.3-0.8,1.3c-0.7,0-3.5-0.2-18.5-0.2
		c-14.8,0-15.2,0.2-16,0.2c-0.8,0-0.8-0.4-0.8-1.3c0-1.1,0-1.7,2.8-1.7c8,0,8.6-1.7,8.7-4.5c0.2-5.1,0.3-11.6,0.3-16V319.7z
		 M49.1,330.6c0,2.3,0.6,3.8,5.8,3.8c11,0,19.3-6.4,19.3-18c0-10.4-6.7-17.8-16.6-17.8c-7.7,0-8.6,0-8.5,8.4V330.6z"/>
	<path d="M130.3,369.1c-27.2,0-37.4-21.6-37.4-35.2c0-24.3,18.1-39.2,37.4-39.2c21.4,0,37.5,12.8,37.5,38.7
		C167.7,347.5,157.5,369.1,130.3,369.1 M130.3,297.4c-23.5,0-25.4,26.4-25.4,34.6c0,14,6.8,34.5,25.4,34.5
		c23.8,0,25.5-22.5,25.5-34.6C155.7,317.5,149,297.4,130.3,297.4"/>
	<path d="M179.5,319.7c0-7.2-0.1-9.6-0.2-14.2c-0.1-6-1.8-6.8-9.1-6.8c-1.1,0-1.1-0.8-1.1-1.7c0-0.6,0.2-1.3,0.9-1.3
		c0.8,0,8.1,0.4,14.4,0.4c2.6,0,8.8-0.4,14.8-0.4c11.7,0,26.1,3.9,26.1,18.5c0,9.7-5.2,14.4-16.3,18.9c-0.5,0.2-1.1,0.4-1.1,0.8
		c0,0.6,5,9.9,14.4,21.2c7.3,8.8,8.2,10,14.2,10.1c0.7,0,0.7,0.6,0.7,1.2c0,1.1-0.3,1.5-1.2,1.5c-0.5,0-0.9-0.2-8.3-0.2
		c-6.2,0-6.7,0.2-7.2,0.2c-0.9,0-1.2,0-1.8-0.8c-8.4-10.9-15.1-23.7-18.7-27.4c-4.1-4.1-6.5-4.1-10.6-4v8.8c0,4.3,0.1,10.9,0.3,16
		c0.1,2.7,0.7,4.5,8.7,4.5c2.8,0,2.8,0.6,2.8,1.7c0,0.9,0,1.3-0.8,1.3c-0.7,0-1.1-0.2-16.1-0.2c-13.3,0-13.7,0.2-14.4,0.2
		c-0.8,0-0.8-0.4-0.8-1.3c0-1.1,0-1.7,2.8-1.7c6.5,0,7.1-1.7,7.2-4.5c0.2-5.1,0.3-11.6,0.3-16V319.7z M197.8,332.6
		c12.1,0,16.6-8,16.6-17.2c0-9.3-5.7-16.8-17.3-16.8c-6.2,0-7.6,0.5-7.6,7.2v26.8H197.8z"/>
	<path d="M298.3,296.7c3.7,0,4.6-2.5,6.3-2.5c0.6,0,0.7,0.4,1.7,3.8c3.3,11.5,4.5,13.4,4.5,13.7c0,0.3-0.9,0.8-1.5,0.8
		c-0.7,0-1-0.1-1.4-0.7c-4.8-8.8-9.7-12.1-17.1-12.1h-12.3c-1.7,0-2.4,1.1-2.4,6.3v39c0,4.3,0.1,10.9,0.3,15.9
		c0.1,2.8,0.7,4.5,8.7,4.5c2.8,0,2.8,0.6,2.8,1.7c0,0.9,0,1.3-0.8,1.3c-0.7,0-1.1-0.2-16.1-0.2c-14.8,0-15.3,0.2-16,0.2
		c-0.8,0-0.8-0.4-0.8-1.3c0-1.1,0-1.7,2.8-1.7c8,0,8.6-1.7,8.7-4.5c0.2-5,0.3-11.6,0.3-15.9v-39c0-6.3-1-6.3-4.5-6.3h-11
		c-7.5,0-12.5,6.2-16.5,12.1c-0.4,0.6-0.8,0.6-1.7,0.6c-0.9,0-1.4-0.4-1.4-0.7c0-0.3,0.5-0.7,4.8-13.6c0.4-1.1,0.6-4,1.5-4
		c2.1,0,2.5,2.5,6.7,2.5H298.3z"/>
	<path d="M389.8,371.1c-27.2,0-37.4-21.6-37.4-35.2c0-24.3,18.3-39.3,37.5-39.3c21.4,0,37.3,13,37.3,38.8
		C427.3,349.5,417.1,371.1,389.8,371.1 M389.8,299.4c-23.6,0-25.4,26.4-25.4,34.6c0,14,6.8,34.4,25.4,34.4
		c23.8,0,25.4-22.5,25.4-34.6C415.3,319.5,408.5,299.4,389.8,299.4"/>
	<path d="M443.7,319.7c0-7.2-0.1-9.6-0.2-14.2c-0.1-6-1.8-6.8-10.1-6.8c-1.1,0-1.1-0.8-1.1-1.7c0-0.6,0.2-1.3,0.9-1.3
		c0.8,0,9.1,0.4,15.5,0.4c6.5,0,15.3-0.4,16.1-0.4c0.7,0,0.9,0.7,0.9,1.3c0,0.9,0,1.7-1.1,1.7c-8.8,0-10.5,0.8-10.6,6.8
		c-0.1,4.6-0.2,7.1-0.2,14.2v24.8c0,4.3,0.1,10.9,0.3,16c0.1,3.6,2.9,4.1,10.6,4.1c15.6,0,22.9-0.5,27.7-14.9
		c0.7-2.1,0.5-2.8,1.4-2.8c1.9,0,2.1,0.3,2.1,1.2c0,0.5-2.1,8.8-3.9,19c-0.1,0.6-0.5,0.8-1,0.8c-1.1,0-2.3-0.2-41.8-0.2
		c-14.8,0-15.3,0.2-16,0.2c-0.8,0-0.8-0.4-0.8-1.3c0-1.1,0-1.7,2.3-1.7c8,0,8.6-1.7,8.7-4.5c0.2-5.1,0.3-11.6,0.3-16V319.7z"/>
	<path d="M510,319.7c0-7.2-0.1-9.6-0.2-14.2c-0.1-6-1.8-6.8-10.6-6.8c-1.1,0-1.1-0.8-1.1-1.7c0-0.6,0.2-1.3,0.9-1.3
		c0.8,0,9.6,0.4,15.9,0.4c6.5,0,15.3-0.4,16.1-0.4c0.7,0,0.9,0.7,0.9,1.3c0,0.9,0,1.7-1.1,1.7c-8.8,0-10.5,0.8-10.6,6.8
		c-0.1,4.6-0.2,7.1-0.2,14.2v24.8c0,4.3,0.1,10.9,0.3,16c0.1,2.7,0.7,4.5,8.7,4.5c2.8,0,2.8,0.6,2.8,1.7c0,0.9,0,1.3-0.8,1.3
		c-0.7,0-1.1-0.2-16.1-0.2c-14.8,0-15.2,0.2-15.9,0.2c-0.8,0-0.8-0.4-0.8-1.3c0-1.1,0-1.7,2.8-1.7c8,0,8.6-1.7,8.7-4.5
		c0.2-5.1,0.3-11.6,0.3-16V319.7z"/>
	<path d="M573.1,369.1c-27.2,0-37.4-21.6-37.4-35.2c0-24.3,18.1-39.2,37.4-39.2c21.4,0,37.5,12.8,37.5,38.7
		C610.6,347.5,600.3,369.1,573.1,369.1 M573.1,297.4c-23.5,0-25.4,26.4-25.4,34.6c0,14,6.8,34.4,25.4,34.4
		c23.8,0,25.4-22.5,25.4-34.6C598.5,317.5,591.8,297.4,573.1,297.4"/>
	<path d="M44.1,208.9c0-9.7-0.1-13-0.3-19.3c-0.1-8.1-2.5-9.2-13.7-9.2c-1.5,0-1.5-1.1-1.5-2.3c0-0.8,0.3-1.8,1.2-1.8
		c1.1,0,12.3,0.6,20.9,0.6c8.7,0,20.7-0.6,21.7-0.6c1,0,1.2,1,1.2,1.8c0,1.2,0,2.3-1.5,2.3c-11.9,0-14.2,1.1-14.4,9.2
		c-0.1,6.3-0.3,9.6-0.3,19.3v33.5c0,5.9,0.2,14.8,0.4,21.6c0.1,4.9,4,5.6,14.4,5.6c21.1,0,31-0.7,37.5-20.1c1-2.9,0.7-3.8,1.9-3.8
		c2.6,0,2.9,0.4,2.9,1.6c0,0.7-2.9,11.9-5.2,25.7c-0.1,0.8-0.7,1.1-1.4,1.1c-1.5,0-3.2-0.3-56.6-0.3c-20.1,0-20.7,0.3-21.6,0.3
		c-1.1,0-1.1-0.5-1.1-1.8c0-1.5,0-2.3,3.1-2.3c10.8,0,11.6-2.3,11.8-6c0.3-6.8,0.4-15.7,0.4-21.6V208.9z"/>
	<path d="M136.5,233.7c0,18.3,7.7,34.3,30.6,34.3c16,0,29.8-8.9,29.8-41.4v-27.1c0-19-4-19-18.1-19c-1.1,0-1.1-0.8-1.1-2.1
		c0-1.7,0.4-2.1,1.1-2.1c2.3,0,11.2,0.6,20.1,0.6c4.2,0,15.9-0.6,17.8-0.6c1.4,0,1.9,0.3,1.9,2.3c0,0.6-0.1,1.8-1.2,1.8
		c-13.1,0-15.9,0-15.9,16.1V229c0,36.9-23.5,46.8-39.4,46.8c-30.6,0-39.3-20.5-39.3-35.6v-31.3c0-9.7-0.1-13-0.3-19.3
		c-0.1-8.1-2.5-9.2-14.4-9.2c-1.5,0-1.5-1.1-1.5-2.3c0-0.8,0.3-1.8,1.2-1.8c1.1,0,13,0.6,21.6,0.6c8.8,0,20.7-0.6,21.8-0.6
		c0.9,0,1.2,1,1.2,1.8c0,1.2,0,2.3-1.5,2.3c-11.9,0-14.2,1.1-14.4,9.2c-0.1,6.3-0.3,9.6-0.3,19.3V233.7z"/>
	<path d="M303.6,264.2c3,4.9,6.2,5.9,12.2,5.9c0.9,0,4.4,0.1,4.4,1.2c0,2.6,0,2.9-1.2,2.9c-1.1,0-2.2-0.3-20.8-0.3
		c-17.4,0-18.6,0.3-19.8,0.3c-1.4,0-1.4-0.8-1.4-2.9c0-1.2,5.5-1.2,6.4-1.2c1.8,0,3.6-1.1,3.6-4.1c0-2.7-5.2-10-17.9-31.7
		c-0.9-1.6-1.6-2.6-2.2-2.6c-0.5,0-1.8,2.2-4,4.8c-3.3,4.1-17.9,24.6-17.9,28.7c0,1.4,0,4.9,8.5,4.9c4.4,0,5.9,0.1,5.9,1.6
		c0,1.8-0.3,2.5-1.4,2.5c-1.1,0-2.5-0.3-20.1-0.3c-14.5,0-15.3,0.3-16.1,0.3c-1.2,0-1.2-1.1-1.2-1.8c0-1.8,0.3-2.3,3-2.3
		c6.2,0,9.4-1,13.3-5.9l25.4-33c1-1.2,2.2-2.9,2.2-3.6c0-1.9-17-29-23.5-39.1c-5.2-8.1-9-8.1-16.5-8.1c-0.8,0-1-1.1-1-1.9
		c0-1.1,0.1-2.2,1.6-2.2c6,0,13.4,0.6,18.1,0.6c7.3,0,18.9-0.6,22.2-0.6c0.9,0,1.2,1.1,1.2,1.9c0,2.2-0.5,2.2-2.6,2.2
		c-5.6,0-8.2,0-8.2,3.7c0,1.5,1.2,3.2,3.4,6.8c11.6,18.9,14.8,24.4,15.2,24.4c1.1,0,6.7-7.9,14.2-18.5c3.4-4.8,4.5-8.1,4.5-10.4
		c0-3.8-1.8-6-6.3-6c-4.1,0-4.8,0-4.8-2.1c0-1.8,0.9-2.1,1.5-2.1c2.3,0,12,0.6,16.3,0.6c5.2,0,17.9-0.6,19.2-0.6
		c1.4,0,1.4,1,1.4,2.2c0,0.5,0,1.9-1.2,1.9c-9.9,0-12,1.9-16.3,6.4c-9.2,10.1-18.9,23.1-22.8,28.3c-2,2.6-2.9,4.1-2.9,4.4
		c0,0.8,0.4,2.3,16.3,27.9L303.6,264.2z"/>
	<path d="M354.3,233.7c0,18.3,7.7,34.3,30.6,34.3c16,0,29.8-8.9,29.8-41.4v-27.1c0-19-4-19-18.1-19c-1.1,0-1.1-0.8-1.1-2.1
		c0-1.7,0.4-2.1,1.1-2.1c2.3,0,11.2,0.6,20.1,0.6c4.3,0,15.9-0.6,17.8-0.6c1.4,0,1.9,0.3,1.9,2.3c0,0.6-0.1,1.8-1.2,1.8
		c-13.1,0-15.9,0-15.9,16.1V229c0,36.9-23.5,46.8-39.4,46.8c-30.6,0-39.3-20.5-39.3-35.6v-31.3c0-9.7-0.1-13-0.3-19.3
		c-0.1-8.1-2.5-9.2-14.4-9.2c-1.5,0-1.5-1.1-1.5-2.3c0-0.8,0.3-1.8,1.2-1.8c1.1,0,13,0.6,21.6,0.6c8.8,0,20.6-0.6,21.7-0.6
		c1,0,1.2,1,1.2,1.8c0,1.2,0,2.3-1.5,2.3c-11.9,0-14.2,1.1-14.4,9.2c-0.1,6.3-0.3,9.6-0.3,19.3V233.7z"/>
	<path d="M453.3,208.9c0-9.7-0.1-13-0.3-19.3c-0.1-8.1-2.5-9.2-12.3-9.2c-1.5,0-1.5-1.1-1.5-2.3c0-0.8,0.3-1.8,1.2-1.8
		c1.1,0,10.9,0.6,19.6,0.6c3.5,0,11.9-0.6,20-0.6c15.9,0,35.3,5.3,35.3,25c0,13.1-7,19.6-22,25.6c-0.7,0.3-1.5,0.5-1.5,1.1
		c0,0.8,6.8,13.4,19.6,28.7c9.9,11.9,11.1,13.5,19.3,13.7c0.9,0,0.9,0.8,0.9,1.6c0,1.5-0.4,2-1.6,2c-0.7,0-1.2-0.3-11.2-0.3
		c-8.4,0-9,0.3-9.7,0.3c-1.2,0-1.6,0-2.5-1.1c-11.4-14.8-20.4-32.1-25.3-37.1c-5.6-5.6-8.7-5.6-14.4-5.5v11.9
		c0,5.9,0.1,14.8,0.4,21.6c0.1,3.7,1,6,11.8,6c3.8,0,3.8,0.8,3.8,2.3c0,1.2,0,1.8-1.1,1.8c-0.9,0-1.5-0.3-21.7-0.3
		c-18.1,0-18.6,0.3-19.6,0.3c-1.1,0-1.1-0.5-1.1-1.8c0-1.5,0-2.3,3.8-2.3c8.8,0,9.6-2.3,9.7-6c0.3-6.9,0.4-15.7,0.4-21.6V208.9z
		 M478.1,226.4c16.4,0,22.4-10.8,22.4-23.2c0-12.6-7.7-22.7-23.4-22.7c-8.4,0-10.3,0.7-10.3,9.7v36.3H478.1z"/>
	<path d="M528.8,185.2c-2.3-4.5-5.2-4.8-9.3-4.8c-3.7,0-4-0.1-4-2.2c0-1.8,1-1.9,2.3-1.9c5.7,0,11.5,0.6,17.2,0.6
		c6.2,0,12.4-0.6,18.6-0.6c2.2,0,2.7,0.3,2.7,2.1c0,1.6-0.1,2.1-3.4,2.1c-4.9,0-7.5,0.9-7.5,4.2c0,1.8,2.3,7.1,18.6,37.6
		c2.2,4.1,2.6,5.3,3.4,5.3c0.9,0,2.3-2.9,5.7-9.3c14.8-27.1,16.1-30.9,16.1-33.1c0-2.6-1-4.8-6.2-4.8c-5.7,0-6-0.4-6-2.2
		c0-1.4,0.8-1.9,1.8-1.9c1.4,0,12.7,0.6,14.7,0.6c3.3,0,11.1-0.6,16.9-0.6c1.4,0,1.8,0.8,1.8,1.9c0,1.6-0.5,2.2-5.1,2.2
		c-8.3,0-10.9,4.4-13.4,9.2l-21.6,39.3c-2.9,5.2-3.1,5.7-3.1,13.5c0,5.9,0.1,14.8,0.4,21.6c0.1,3.7,0.9,6,11.8,6
		c3.8,0,3.8,0.8,3.8,2.3c0,1.2,0,1.8-1.1,1.8c-0.9,0-1.5-0.3-21.7-0.3c-20.1,0-20.7,0.3-21.6,0.3c-1.1,0-1.1-0.5-1.1-1.8
		c0-1.5,0-2.3,3.8-2.3c10.8,0,11.6-2.3,11.8-6c0.3-6.9,0.4-15.7,0.4-21.6c0-6.1-0.5-7.7-1.2-8.7L528.8,185.2z"/>
	<path d="M26.9,388v10.2h162.7c0.7-4,2.2-7.4,4.4-10.2H26.9z"/>
	<path d="M612.5,388H299.4c-2.9,3.6-5.8,7-8.6,10.2h321.8V388z"/>
	<path d="M217.2,388.1c-5.8,0.3-9.7,4.5-10.9,10h63.3c3-3.2,5.9-6.6,8.9-10.2h-57.6L217.2,388.1z"/>
	<path class="st0" d="M326,299.2v-2.5h16c21.4-34.6,45.6-73.3,75.6-73.3c8.8,0,15,3.8,15,11.5c0,6.7-4.6,11.5-11.1,11.9
		c1-3.8,1.9-7.1,1.9-11.7c0-5.4-2.5-9.2-8.8-9.2c-20.8,0-43.1,42.1-60.8,70.8h37.9v2.5h-39.1c-53.3,91.1-80.6,128.8-127.7,128.8
		c-16.5,0-31.9-8.5-31.9-25c0-10.8,6.2-19.6,22.3-19.6h1.9v1.7c-8.3,0.4-15,6.7-15,16.9c0,14.4,8.3,23.5,23.8,23.5
		c45,0,76-65.2,114.8-126.3H326z"/>
	<rect x="28.8" y="447.9" width="5.9" height="27"/>
	<polygon points="62.4,447.9 70.5,447.9 81.9,466.7 82,466.7 82,447.9 88,447.9 88,474.9 80.2,474.9 68.4,455.7 68.4,455.7 
		68.4,474.9 62.4,474.9 	"/>
	<polygon points="120.9,453.2 113.2,453.2 113.2,447.9 134.5,447.9 134.5,453.2 126.9,453.2 126.9,474.9 120.9,474.9 	"/>
	<polygon points="160.1,447.9 178.4,447.9 178.4,453.4 166,453.4 166,458.4 177.7,458.4 177.7,463.9 166,463.9 166,469.4 179,469.4 
		179,474.9 160.1,474.9 	"/>
	<path d="M206.1,447.9h10.4c5.5,0,10.2,1.9,10.2,8.2c0,3.8-2,6.7-5.8,7.4l6.9,11.4h-7.1l-5.6-10.8H212v10.8h-5.9V447.9z M212,459.1
		h3.5c2.2,0,5-0.1,5-3c0-2.7-2.4-3.1-4.6-3.1H212V459.1z"/>
	<polygon points="253,447.9 261,447.9 272.5,466.7 272.6,466.7 272.6,447.9 278.5,447.9 278.5,474.9 270.8,474.9 259,455.7 
		258.9,455.7 258.9,474.9 253,474.9 	"/>
	<path d="M315.1,447.9h4.9l11.7,27h-6.7l-2.3-5.7h-10.5l-2.2,5.7h-6.5L315.1,447.9z M317.4,455.8l-3.3,8.4h6.6L317.4,455.8z"/>
	<polygon points="358.4,453.2 350.7,453.2 350.7,447.9 372,447.9 372,453.2 364.4,453.2 364.4,474.9 358.4,474.9 	"/>
	<rect x="397.2" y="447.9" width="5.9" height="27"/>
	<path d="M444,447.2c8.4,0,14.5,5.5,14.5,14.2c0,8.6-6.1,14.2-14.5,14.2c-8.4,0-14.5-5.5-14.5-14.2
		C429.4,452.8,435.5,447.2,444,447.2 M444,470.1c5.1,0,8.4-3.7,8.4-8.7c0-5-3.3-8.7-8.4-8.7c-5.1,0-8.4,3.6-8.4,8.7
		C435.6,466.4,438.9,470.1,444,470.1"/>
	<polygon points="484.8,447.9 492.9,447.9 504.3,466.7 504.4,466.7 504.4,447.9 510.3,447.9 510.3,474.9 502.6,474.9 490.8,455.7 
		490.7,455.7 490.7,474.9 484.8,474.9 	"/>
	<path d="M547,447.9h4.9l11.7,27h-6.7l-2.3-5.7h-10.5l-2.2,5.7h-6.6L547,447.9z M549.3,455.8l-3.3,8.4h6.6L549.3,455.8z"/>
	<polygon points="588.8,447.9 594.7,447.9 594.7,469.4 605.7,469.4 605.7,474.9 588.8,474.9 	"/>
	<path d="M619.2,445.4c4.2,0,7.6,3.4,7.6,7.6c0,4.2-3.4,7.6-7.6,7.6c-4.2,0-7.6-3.4-7.6-7.6C611.6,448.9,615,445.4,619.2,445.4
		 M619.2,459c3.2,0,5.7-2.6,5.7-5.9c0-3.3-2.5-5.9-5.7-5.9c-3.2,0-5.7,2.6-5.7,5.9C613.6,456.4,616,459,619.2,459 M616.3,449h2.6
		c1.8,0,3.6,0.4,3.6,2.4c0,1.4-0.9,2.3-1.8,2.5l2,3.2h-2.2l-1.8-3.1h-0.5v3.1h-2V449z M618.3,452.3h1c0.5,0,1.3,0,1.3-0.9
		c0-0.8-0.8-0.9-1.3-0.9h-1V452.3z"/>
</g>
</svg>
