<svg xmlns="http://www.w3.org/2000/svg" fill="none" data-testid="logo-brand" viewBox="0 0 177 24"><g clip-path="url(#a)"><path fill="#D72228" d="M72.89 20.04V.01h-5.82v.64c2.12.19 2.8.77 2.8 2.35v16.97c0 1.96-.61 2.76-2.03 2.76-1.58 0-2.25-.8-2.25-2.76v-7.11c0-3.7-1.9-5.59-5.66-5.59-3.09 0-5.82 1.25-5.88 3.54-.03 1.06.51 1.93 1.58 1.93s1.54-.8 1.54-1.74c0-2.06.68-2.93 2.64-2.93 1.77 0 2.83.8 2.83 3.92 0 1.03-.35 1.22-2.96 2.19-4.5 1.7-6.72 2.8-6.72 5.69 0 2.64 1.83 3.86 4.82 3.86 2.48 0 4.08-.84 4.86-2.76.29 1.67 1.13 2.54 2.86 2.54h10.19v-.61c-2.19-.19-2.8-.84-2.8-2.86Zm-10.26-1.7c0 2.15-1.38 4.34-3.83 4.34-1.64 0-2.6-1.03-2.6-2.96 0-2.6 1.29-3.79 4.18-4.89 1.06-.42 1.77-.68 2.25-.93v4.44ZM39.07 9.01c0 .9-.55 1.77-1.45 1.77-1.09 0-1.22-1.25-2.28-1.25-1.61 0-3.22 3.6-3.22 6.49v4.21c0 1.74.68 2.35 3.02 2.64v.64h-8.71v-.61c1.99-.32 2.7-1.06 2.7-2.76v-9.42c0-1.61-.51-2.12-2.64-2.51V7.6h5.56l-.06 4.4h.26c.91-2.58 2.7-4.73 4.83-4.73 1.29 0 1.99.71 1.99 1.74Zm6.97-1.73c-4.34 0-7.07 3.12-7.07 8.52 0 5.4 2.51 7.94 6.85 7.94 2.86 0 4.76-1.09 5.79-3.86l-.64-.32c-.87 2.09-2.41 3.12-4.57 3.12-3.05 0-3.92-2.41-3.92-7.49v-.39h9.35v-1.51c-.06-3.86-2.22-6.01-5.79-6.01Zm2.6 6.72h-6.15c.17-4.08 1.26-5.92 3.35-5.92 1.77 0 2.73 1.7 2.8 5.02v.9Z"/><path fill="#000" d="m85.39 22.04.35.58c-1.09.68-2.44 1.09-3.96 1.09-2.57 0-4.18-1.22-4.18-3.83V8.37h-2.38v-.58c2.44-.71 4.31-2.6 4.86-5.18h.61v4.95h4.98v.84h-4.98v11.06c0 2.19.68 3.05 2.64 3.05.8 0 1.48-.23 2.06-.48v.01Zm84.83-1.87v-7.88c0-3.41-1.74-5.05-4.79-5.05-2.69 0-4.07 1.22-4.69 3.63h-.18c-.18-2.36-1.74-3.63-4.52-3.63-2.78 0-4.23 1.22-4.81 3.63h-.2l.03-3.28h-5.5v.61c1.99.29 2.64.84 2.64 2.41v9.52c0 1.7-.71 2.44-2.7 2.76v.61h7.88v-.64c-1.61-.29-2.19-.96-2.19-2.7v-4.18c0-4.98 1.38-7.59 4.05-7.59 1.58 0 2.44.96 2.44 3.15v8.62c0 1.74-.51 2.41-2.12 2.7v.64h7.3v-.64c-1.61-.29-2.15-.96-2.15-2.7v-4.15c0-4.98 1.41-7.62 4.08-7.62 1.67 0 2.41 1.06 2.41 3.15v8.65c0 1.74-.55 2.38-2.15 2.67v.64h7.46v-.64c-1.74-.29-2.28-.96-2.28-2.7l-.01.01Zm-25.08-4.66c0 4.95-2.99 8.26-7.49 8.26s-7.56-3.31-7.56-8.26c0-4.95 3.02-8.23 7.52-8.23s7.52 3.28 7.52 8.23h.01Zm-3.51 0c0-5.08-1.25-7.36-3.99-7.36s-4.05 2.28-4.05 7.36 1.32 7.39 4.05 7.39c2.73 0 3.99-2.28 3.99-7.39Zm-17.84 7.2c-2.86 0-4.34-2.28-4.34-7.33 0-5.05 1.42-7.27 3.92-7.27 1.48 0 2.19.84 2.19 2.6 0 1.58.58 2.38 1.67 2.38 1 0 1.54-.74 1.51-1.93-.06-2.54-2.67-3.89-5.6-3.89-4.4 0-7.24 3.09-7.24 8.36s2.51 8.13 7.17 8.13c2.99 0 4.73-1.25 5.98-3.86l-.68-.35c-1.03 2.15-2.64 3.15-4.6 3.15l.02.01Zm-23.76-7.2c0 4.95-2.99 8.26-7.49 8.26s-7.59-3.31-7.59-8.26c0-4.95 3.02-8.23 7.56-8.23 4.54 0 7.52 3.28 7.52 8.23Zm-3.54 0c0-5.08-1.25-7.36-3.99-7.36s-4.02 2.28-4.02 7.36 1.29 7.39 4.02 7.39c2.73 0 3.99-2.28 3.99-7.39Zm16.91-6.5c0-1.03-.71-1.74-1.99-1.74-2.23 0-4.09 2.14-5.03 4.73h-.28l.06-4.4h-5.56v.61c2.12.39 2.64.9 2.64 2.51v9.42c0 1.7-.71 2.44-2.7 2.76v.61h8.71v-.64c-2.35-.29-3.02-.9-3.02-2.64v-4.21c0-2.89 1.67-6.49 3.44-6.49 1.06 0 1.19 1.25 2.28 1.25.9 0 1.45-.87 1.45-1.77Zm-.32 11.32c-.96 0-1.7.74-1.7 1.7s.74 1.7 1.7 1.7 1.7-.74 1.7-1.7-.74-1.7-1.7-1.7ZM174.22 7a2.51 2.51 0 0 0-2.51 2.5c0 1.38 1.13 2.48 2.51 2.48s2.47-1.1 2.47-2.48-1.1-2.5-2.47-2.5Zm0 4.54c-1.18 0-2.04-.92-2.04-2.04s.86-2.07 2.04-2.07c1.11 0 2.01.94 2.01 2.07s-.9 2.04-2.01 2.04Z"/><path fill="#000" d="M175.27 9.04c0-.46-.37-.83-.99-.83h-1.01v2.47h.51v-.82h.45l.48.82h.56l-.57-.9c.38-.1.57-.42.57-.74Zm-1.01.45h-.48v-.85h.48c.26 0 .5.13.5.4s-.21.45-.5.45Z"/><path fill="#D72228" d="M22.94 13.39 11.88 2.04.79 13.39h3.37v10.12h15.36V13.39h3.42Z"/><path fill="#fff" d="M11.85 13.48h.2c.79-1.96 2.19-3.34 3.39-3.34.85 0 1.52.61 1.52 1.55 0 .82-.47 1.4-1.14 1.4-.44 0-.64-.23-.85-.44-.23-.23-.41-.5-.76-.5-1.05 0-2.25 2.34-2.25 4.18v1.78c0 1.58.41 1.93 2.19 2.17v.56H7.51v-.5c1.61-.2 2.14-.67 2.14-2.22v-5.36c0-1.14-.5-1.58-1.99-1.84v-.52h4.27l-.09 3.07.01.01Z"/></g><defs><clipPath id="a"><path fill="#fff" d="M0 0h177v24H0z"/></clipPath></defs></svg>